<svg fill="#000000" xmlns="http://www.w3.org/2000/svg"  viewBox="0 0 50 50" width="50px" height="50px"><path d="M36 31A3 3 0 1 0 36 37 3 3 0 1 0 36 31zM36 13A3 3 0 1 0 36 19 3 3 0 1 0 36 13zM14 22A3 3 0 1 0 14 28 3 3 0 1 0 14 22z"/><path d="M43,4H7C4.794,4,3,5.794,3,8v34c0,2.206,1.794,4,4,4h36c2.206,0,4-1.794,4-4V8C47,5.794,45.206,4,43,4z M27.589,33h3.512c0.465-2.279,2.484-4,4.899-4c2.757,0,5,2.243,5,5s-2.243,5-5,5c-2.414,0-4.434-1.721-4.899-4H27c-0.363,0-0.698-0.197-0.874-0.515L21.412,26h-2.513c-0.465,2.279-2.484,4-4.899,4c-2.757,0-5-2.243-5-5s2.243-5,5-5c2.414,0,4.434,1.721,4.899,4h2.513l4.714-8.485C26.302,15.197,26.637,15,27,15h4.101c0.465-2.279,2.484-4,4.899-4c2.757,0,5,2.243,5,5s-2.243,5-5,5c-2.414,0-4.434-1.721-4.899-4h-3.512l-4.445,8L27.589,33z"/></svg>